<svg width="56" height="28" viewBox="0 0 56 28" fill="none" xmlns="http://www.w3.org/2000/svg">
<g clip-path="url(#clip0_10_18)">
<path d="M22.28 10.504V10.624H21.704C21.72 10.704 21.728 10.784 21.728 10.864C21.728 10.944 21.728 11.024 21.728 11.104H17.528C17.528 11.312 17.424 11.472 17.216 11.584C17.12 11.616 17.048 11.632 17 11.632H12.104C12.04 11.632 11.976 11.632 11.912 11.632C11.848 11.616 11.784 11.6 11.72 11.584H7.808V11.704H9.92C9.904 11.784 9.896 11.864 9.896 11.944C9.896 12.024 9.896 12.104 9.896 12.184H9.056C9.04 12.216 9.032 12.256 9.032 12.304C9.032 12.352 9.032 12.392 9.032 12.424H9.104V12.664H8.744V13.144H9.896V13.264H6.008V13.504H7.232V13.984H9.704V14.104H8.696V14.224H8.048V14.704H9.896C9.912 14.768 9.92 14.832 9.92 14.896C9.92 14.944 9.92 15 9.92 15.064H10.592V15.184H7.496V15.424H6.8V15.544H9.92V15.568H14.72C15.024 15.568 15.2 15.72 15.248 16.024H18.8V16.384H18.632L18.584 16.864H18.32L18.296 17.104H18.92C18.92 17.152 18.912 17.192 18.896 17.224H18.752C18.736 17.256 18.728 17.296 18.728 17.344H19.52L19.448 17.704H18.704C18.704 17.72 18.696 17.736 18.68 17.752C18.68 17.768 18.68 17.792 18.68 17.824H18.488C18.472 17.888 18.448 17.952 18.416 18.016C18.4 18.064 18.384 18.12 18.368 18.184H18.656C18.656 18.2 18.64 18.24 18.608 18.304H18.128C18.096 18.384 18.056 18.464 18.008 18.544C17.976 18.624 17.936 18.704 17.888 18.784H18.368L18.152 19.144H18.368L18.128 19.504H17.984C17.92 19.584 17.848 19.664 17.768 19.744C17.704 19.824 17.632 19.904 17.552 19.984H17.36C17.344 20 17.328 20.016 17.312 20.032C17.296 20.048 17.272 20.072 17.24 20.104H16.208L16.088 20.224H20.912C20.816 20.304 20.72 20.384 20.624 20.464C20.528 20.544 20.424 20.624 20.312 20.704H20.048C19.888 20.816 19.696 20.936 19.472 21.064H14.408C14.248 21.16 14.08 21.248 13.904 21.328C13.728 21.392 13.552 21.464 13.376 21.544H17.336C17.288 21.56 17.232 21.576 17.168 21.592C17.12 21.608 17.064 21.632 17 21.664H16.04C15.976 21.68 15.912 21.696 15.848 21.712C15.784 21.728 15.72 21.752 15.656 21.784H13.928C13.352 21.944 12.76 22.064 12.152 22.144H12.536C12.28 22.176 12.016 22.2 11.744 22.216C11.472 22.232 11.2 22.24 10.928 22.24C10.624 22.24 10.328 22.232 10.04 22.216C9.768 22.2 9.496 22.176 9.224 22.144H8.84C8.2 22.064 7.608 21.944 7.064 21.784H8.792C8.728 21.752 8.664 21.728 8.6 21.712C8.552 21.696 8.496 21.68 8.432 21.664H9.416L9.08 21.544H5.12C4.96 21.464 4.792 21.392 4.616 21.328C4.456 21.248 4.296 21.16 4.136 21.064H9.224C9.128 21 9.032 20.944 8.936 20.896C8.84 20.832 8.752 20.768 8.672 20.704H8.936C8.744 20.56 8.56 20.4 8.384 20.224H3.536C3.52 20.192 3.504 20.168 3.488 20.152C3.472 20.136 3.448 20.12 3.416 20.104H4.472C4.456 20.072 4.432 20.048 4.4 20.032C4.384 20.016 4.368 20 4.352 19.984H4.544C4.4 19.824 4.264 19.664 4.136 19.504H4.28L4.064 19.144H3.848L3.632 18.784H3.152L2.936 18.304H3.44L3.392 18.184H3.08C3.064 18.12 3.048 18.064 3.032 18.016C3.016 17.952 2.992 17.888 2.96 17.824H3.152L3.104 17.704H3.848C3.832 17.64 3.816 17.584 3.8 17.536C3.784 17.472 3.768 17.408 3.752 17.344H3.368C3.352 17.312 3.344 17.272 3.344 17.224H2.936C2.92 17.192 2.912 17.152 2.912 17.104H2.936C2.936 17.04 2.92 16.96 2.888 16.864H1.52L1.448 16.384H3.296C3.28 16.32 3.272 16.264 3.272 16.216C3.272 16.152 3.264 16.088 3.248 16.024H3.704C3.704 15.976 3.704 15.928 3.704 15.88C3.704 15.832 3.696 15.784 3.68 15.736V15.544H0.56V15.424H1.256V15.184H4.352V15.064H3.68C3.68 15 3.672 14.944 3.656 14.896C3.656 14.832 3.656 14.768 3.656 14.704H1.808V14.224H2.456V14.104H3.464V13.984H0.992V13.504H-0.232V13.264H3.656V13.144H2.504V12.664H2.864V12.424H2.792V12.184H3.656V11.704H1.568V11.584H6.176V11.464C6.192 11.4 6.2 11.344 6.2 11.296C6.2 11.232 6.2 11.168 6.2 11.104H4.928C4.928 11.024 4.928 10.944 4.928 10.864C4.944 10.784 4.96 10.704 4.976 10.624H5.744C5.76 10.592 5.768 10.552 5.768 10.504H0.8C0.816 10.472 0.824 10.432 0.824 10.384C0.824 10.336 0.832 10.296 0.848 10.264H5.216L5.336 9.784H4.352L4.424 9.544H2.816L2.864 9.424H3.392C3.408 9.392 3.424 9.352 3.44 9.304C3.456 9.256 3.472 9.216 3.488 9.184H3.224L3.32 8.944H3.44C3.472 8.88 3.504 8.824 3.536 8.776C3.568 8.712 3.592 8.648 3.608 8.584H3.632L3.848 8.224H3.776C3.808 8.16 3.84 8.104 3.872 8.056C3.92 7.992 3.968 7.928 4.016 7.864H3.824C3.888 7.784 3.952 7.704 4.016 7.624C4.08 7.528 4.144 7.448 4.208 7.384H3.992C4.008 7.352 4.024 7.328 4.04 7.312C4.056 7.296 4.072 7.28 4.088 7.264H3.848L3.968 7.144H3.92C3.952 7.112 3.976 7.088 3.992 7.072C4.008 7.056 4.024 7.04 4.04 7.024H3.608C3.64 6.992 3.68 6.952 3.728 6.904C3.776 6.856 3.824 6.816 3.872 6.784H4.448C4.528 6.72 4.608 6.664 4.688 6.616C4.768 6.552 4.848 6.488 4.928 6.424H4.664L4.856 6.304H4.448C4.48 6.272 4.512 6.248 4.544 6.232C4.576 6.216 4.608 6.2 4.64 6.184H5.888C6 6.12 6.112 6.064 6.224 6.016C6.336 5.952 6.448 5.888 6.56 5.824H6.488C6.584 5.776 6.68 5.736 6.776 5.704C6.872 5.656 6.968 5.616 7.064 5.584H7.52C7.568 5.552 7.616 5.528 7.664 5.512C7.728 5.496 7.792 5.48 7.856 5.464H7.136C7.616 5.288 8.128 5.168 8.672 5.104H9.32C9.944 5.008 10.6 4.96 11.288 4.96C11.96 4.96 12.608 5.008 13.232 5.104H12.608C13.136 5.168 13.664 5.288 14.192 5.464H14.912C14.976 5.48 15.032 5.496 15.08 5.512C15.144 5.528 15.208 5.552 15.272 5.584H14.816C15.056 5.664 15.256 5.744 15.416 5.824H15.488C15.616 5.888 15.736 5.952 15.848 6.016C15.96 6.064 16.072 6.12 16.184 6.184H14.96C14.992 6.2 15.024 6.216 15.056 6.232C15.088 6.248 15.12 6.272 15.152 6.304H15.56C15.592 6.32 15.624 6.336 15.656 6.352C15.688 6.368 15.712 6.392 15.728 6.424H15.992L16.472 6.784H15.872L16.16 7.024H16.592L16.736 7.144H16.76L16.88 7.264H17.12L17.24 7.384H17.456C17.52 7.448 17.584 7.528 17.648 7.624C17.712 7.704 17.776 7.784 17.84 7.864H18.008C18.056 7.928 18.096 7.992 18.128 8.056C18.176 8.104 18.216 8.16 18.248 8.224H18.32C18.352 8.288 18.384 8.352 18.416 8.416C18.448 8.464 18.48 8.52 18.512 8.584H18.464C18.496 8.648 18.528 8.712 18.56 8.776C18.592 8.824 18.616 8.88 18.632 8.944H18.512L18.584 9.184H18.848L18.92 9.424H18.392C18.392 9.44 18.392 9.456 18.392 9.472C18.408 9.488 18.416 9.512 18.416 9.544H20.024C20.024 9.608 20.04 9.688 20.072 9.784H17.888L17.96 10.264H19.352L19.376 10.504H22.28ZM11.264 9.784H12.968C12.712 9.688 12.424 9.64 12.104 9.64C11.784 9.64 11.504 9.688 11.264 9.784ZM15.416 10.936C15.4 10.872 15.384 10.816 15.368 10.768C15.352 10.72 15.328 10.672 15.296 10.624H15.872L15.8 10.504H12.92C12.904 10.456 12.88 10.416 12.848 10.384C12.816 10.336 12.784 10.296 12.752 10.264H7.304C7.288 10.296 7.264 10.336 7.232 10.384C7.216 10.416 7.192 10.456 7.16 10.504H12.128L12.08 10.624H11.312C11.28 10.688 11.256 10.768 11.24 10.864C11.224 10.944 11.208 11.024 11.192 11.104H15.488L15.416 10.936ZM12.584 16.024H9.512L9.584 16.384H7.736C7.768 16.48 7.8 16.568 7.832 16.648C7.864 16.712 7.904 16.784 7.952 16.864H9.32C9.352 16.912 9.384 16.96 9.416 17.008C9.448 17.04 9.48 17.072 9.512 17.104H9.464L9.584 17.224H9.992C10.024 17.24 10.056 17.264 10.088 17.296C10.12 17.312 10.152 17.328 10.184 17.344H10.568C10.84 17.488 11.168 17.56 11.552 17.56C11.936 17.56 12.256 17.488 12.512 17.344H11.72L11.912 17.224H12.056L12.2 17.104H11.576C11.608 17.072 11.64 17.04 11.672 17.008C11.72 16.96 11.752 16.912 11.768 16.864H12.032C12.128 16.72 12.208 16.56 12.272 16.384H12.44L12.488 16.264C12.52 16.168 12.552 16.088 12.584 16.024ZM38.2976 20.704H38.4176V20.944H37.7936V21.424H36.2096C36.2096 21.488 36.1936 21.552 36.1616 21.616C36.1296 21.68 36.0976 21.736 36.0656 21.784H35.2496C35.1856 21.848 35.1376 21.888 35.1056 21.904H36.0656C35.9856 21.968 35.8736 22 35.7296 22H31.9376C31.8416 22 31.7536 21.992 31.6736 21.976C31.5936 21.944 31.5216 21.92 31.4576 21.904H30.4736C30.4096 21.872 30.3456 21.832 30.2816 21.784H31.0976C31.0176 21.72 30.9536 21.656 30.9056 21.592C30.8576 21.528 30.8176 21.48 30.7856 21.448V21.424H32.3456L32.0336 20.944H32.6576L32.4896 20.704H32.3696L32.1296 20.344H29.3696L29.0336 19.864H29.3936L29.0816 19.384H28.2416L28.1456 19.264H29.2496L29.0096 18.904H29.5136L29.2736 18.544H28.2896L27.9776 18.064H29.4896L29.4176 17.944H28.6256L28.4816 17.704H27.7376L27.4256 17.224H27.0176L26.9456 17.104H28.0496L27.8096 16.744H26.5616V17.104H25.3616V17.224H26.9936V17.704H27.2336V17.944H27.2576V18.064H26.5616V18.544H25.4336V18.904H26.7536V19.264H26.5136V19.384H26.2256V19.864H26.7536V20.344H26.9696V20.704H25.9856V20.944H26.8256V21.424H25.7696C25.7696 21.488 25.7536 21.552 25.7216 21.616C25.6896 21.68 25.6576 21.736 25.6256 21.784H26.3936C26.3296 21.848 26.2816 21.888 26.2496 21.904H25.5056C25.4256 21.968 25.3136 22 25.1696 22H20.8256C20.6656 22 20.5456 21.968 20.4656 21.904H21.2336C21.2016 21.888 21.1536 21.848 21.0896 21.784H20.2976C20.2656 21.736 20.2336 21.68 20.2016 21.616C20.1696 21.552 20.1536 21.488 20.1536 21.424H21.1856V20.944H20.3456V20.704H21.3296V20.344H21.1136V19.864H20.5856V19.384H20.8736V19.264H21.1136V18.904H19.7936V18.544H20.9216V18.064H21.6176V17.944H21.5936V17.704H21.3536V17.224H19.7216V17.104H20.9216V16.744H22.0736V16.624H20.8016V16.504H21.2816V16.024H20.8976V15.544H20.9216V15.424H20.7296V15.304H20.7536V14.944H19.8416V14.824H20.4656V14.584H19.0496V14.104H21.4256V13.864H19.9136V13.384H20.7776V13.264H20.9216V12.904H21.3536V12.664H21.5696V12.304H20.9456V12.184H20.7056V11.944H20.4656V11.464H20.9216V11.104H21.5696V10.864H23.0816V10.744H21.2096V10.624H20.5856V10.264H20.3216V9.904H20.7536V9.424H21.3776V9.064H21.9776V8.824H20.7776V8.704H20.9216V8.224H21.4736V8.104H20.3456V7.864H21.0416V7.384H20.1296V7.024H20.7296V6.784H18.5936V6.424H18.1376V6.184H19.7456V5.848C19.7456 5.784 19.7536 5.736 19.7696 5.704H21.3776C21.3776 5.64 21.4096 5.56 21.4736 5.464H21.0416C21.1696 5.288 21.3456 5.2 21.5696 5.2H25.3616C25.5376 5.2 25.6896 5.224 25.8176 5.272C25.9456 5.32 26.0496 5.384 26.1296 5.464H26.5616C26.6256 5.528 26.6896 5.608 26.7536 5.704H25.1456C25.1456 5.72 25.1456 5.728 25.1456 5.728C25.1616 5.728 25.1696 5.736 25.1696 5.752L25.4336 6.184H23.8256L23.9696 6.424H24.4256L24.6416 6.784H26.7776L26.9216 7.024H26.3456L26.5616 7.384H27.4496L27.7616 7.864H27.0656L27.2096 8.104H28.3376L28.4096 8.224H27.8576L28.1456 8.704H28.0016L28.0736 8.824H29.2736L29.4176 9.064H28.8176L29.0576 9.424H28.4336L28.7216 9.904H28.2656L28.4816 10.264H28.7456L28.9856 10.624H29.6096L29.6816 10.744H30.0416V10.624H30.7616V10.264H30.0656V9.904H30.2336V9.424H30.7136V9.064H31.2896V8.824H30.1376V8.224H31.5536V8.104H31.5296V7.864H30.0176V7.384H30.5456V7.024H31.2416V6.784H29.7776V6.424H31.6496V6.184H31.5056V5.848C31.5056 5.784 31.5136 5.736 31.5296 5.704H30.7376C30.7536 5.64 30.7936 5.56 30.8576 5.464H30.0416C30.1696 5.288 30.3456 5.2 30.5696 5.2H34.9136C35.1376 5.2 35.3136 5.288 35.4416 5.464H36.2576C36.2896 5.528 36.3216 5.608 36.3536 5.704H37.1456V6.184H37.2896V6.424H35.4176V6.784H36.8816V7.024H36.1856V7.384H35.6576V7.864H37.1696V8.104H37.1936V8.224H35.7776V8.824H36.9296V9.064H36.3536V9.424H35.8736V9.904H35.7056V10.264H36.4016V10.624H35.6816V10.744H37.3616V10.864H36.4736V11.104H36.2336V11.464H35.4416V11.944H34.6256V12.184H35.8736V12.304H36.6896V12.664H36.4736V12.904H36.0416V13.264H35.8976V13.384H35.0336V13.864H36.5456V14.104H34.1696V14.584H35.5856V14.824H34.9616V14.944H35.8736V15.304H35.8496V15.424H36.6176V15.544H36.0896V16.024H36.1376V16.504H36.8096V16.624H35.6576V16.744H36.3536V17.104H35.2496V17.224H35.6336V17.704H36.3776V17.944H37.1696V18.064H35.6336V18.544H36.6176V18.904H36.1136V19.264H35.0336V19.384H35.8736V19.864H35.5136V20.344H38.2976V20.704ZM31.7216 10.744H31.5536L31.6256 10.864H31.7216V10.744ZM30.1136 10.864L30.2576 11.104H29.6096L29.8256 11.464H30.5936V11.104H30.8336V10.864H30.1136ZM29.8016 11.464H29.3696L29.6576 11.944H29.8016V11.464ZM28.1936 16.624L28.1216 16.504H27.4496L27.1376 16.024H27.0656L26.7536 15.544H27.2816L27.1856 15.424H26.5616V15.544H26.5376V16.024H26.9216V16.504H26.4416V16.624H28.1936ZM53.9992 14.344H57.1432V14.824H56.2072V15.304H54.8632V15.64C54.8632 15.704 54.8552 15.768 54.8392 15.832C54.8392 15.896 54.8392 15.96 54.8392 16.024H54.9112C54.9112 16.088 54.9032 16.152 54.8872 16.216C54.8872 16.264 54.8872 16.32 54.8872 16.384H54.6712C54.6712 16.416 54.6712 16.456 54.6712 16.504C54.6712 16.552 54.6632 16.592 54.6472 16.624H52.4392C52.4232 16.656 52.4152 16.696 52.4152 16.744C52.4152 16.792 52.4072 16.832 52.3912 16.864H52.4152L52.3432 17.224H54.0712C54.0552 17.288 54.0392 17.352 54.0232 17.416C54.0072 17.464 53.9912 17.52 53.9752 17.584H54.2392C54.2232 17.664 54.1992 17.744 54.1672 17.824C54.1352 17.904 54.1032 17.984 54.0712 18.064H54.3832L54.2872 18.304H53.9272C53.8952 18.384 53.8552 18.464 53.8072 18.544C53.7752 18.624 53.7352 18.704 53.6872 18.784H54.6472L54.5032 19.024H54.6952C54.6632 19.056 54.6312 19.096 54.5992 19.144C54.5832 19.192 54.5592 19.232 54.5272 19.264H53.1592C53.1432 19.28 53.1272 19.296 53.1112 19.312C53.0952 19.328 53.0792 19.352 53.0632 19.384H54.6232C54.5592 19.48 54.4952 19.56 54.4312 19.624H54.0472C53.9992 19.688 53.9432 19.752 53.8792 19.816C53.8312 19.864 53.7752 19.92 53.7112 19.984H54.5512L54.1672 20.344H53.9032L53.7592 20.464H53.0392C52.8952 20.576 52.7272 20.696 52.5352 20.824H52.3912C52.2952 20.888 52.1912 20.952 52.0792 21.016C51.9832 21.064 51.8792 21.12 51.7672 21.184H51.3112L51.0472 21.304H50.4232C50.1192 21.448 49.8232 21.568 49.5352 21.664H48.9352C48.5032 21.808 48.0472 21.928 47.5672 22.024H47.1112C46.9832 22.04 46.8472 22.056 46.7032 22.072C46.5752 22.104 46.4472 22.128 46.3192 22.144H46.9672C46.7112 22.176 46.4392 22.2 46.1512 22.216C45.8792 22.232 45.5992 22.24 45.3112 22.24C45.0072 22.24 44.7112 22.232 44.4232 22.216C44.1512 22.2 43.8792 22.176 43.6072 22.144H42.9832C42.8392 22.128 42.7032 22.104 42.5752 22.072C42.4472 22.056 42.3192 22.04 42.1912 22.024H42.6472C42.1672 21.928 41.7112 21.808 41.2792 21.664H41.8792C41.5912 21.568 41.3032 21.448 41.0152 21.304H41.6632C41.6152 21.272 41.5672 21.248 41.5192 21.232C41.4872 21.216 41.4552 21.2 41.4232 21.184H41.9032C41.7912 21.12 41.6872 21.064 41.5912 21.016C41.4952 20.952 41.3992 20.888 41.3032 20.824H41.4712L40.9912 20.464H41.7112L41.5672 20.344H41.8312L41.4712 19.984H40.6552C40.5912 19.92 40.5352 19.864 40.4872 19.816C40.4392 19.752 40.3912 19.688 40.3432 19.624H40.7272C40.7112 19.592 40.6872 19.552 40.6552 19.504C40.6232 19.456 40.5912 19.416 40.5592 19.384H38.9992L38.9272 19.264H40.2952L40.1512 19.024H39.9832L39.8392 18.784H38.8792L38.6632 18.304H39.0232C39.0072 18.272 38.9912 18.232 38.9752 18.184C38.9592 18.136 38.9432 18.096 38.9272 18.064H38.6152C38.5832 17.984 38.5512 17.904 38.5192 17.824C38.5032 17.744 38.4792 17.664 38.4472 17.584H38.1832C38.1672 17.52 38.1512 17.464 38.1352 17.416C38.1192 17.352 38.1032 17.288 38.0872 17.224H37.8952C37.8792 17.16 37.8632 17.104 37.8472 17.056C37.8312 16.992 37.8152 16.928 37.7992 16.864H36.4552C36.4392 16.832 36.4312 16.792 36.4312 16.744C36.4312 16.696 36.4232 16.656 36.4072 16.624H38.6152C38.6152 16.592 38.6152 16.552 38.6152 16.504C38.6152 16.456 38.6072 16.416 38.5912 16.384H38.3272C38.3112 16.32 38.2952 16.264 38.2792 16.216C38.2792 16.152 38.2792 16.088 38.2792 16.024H39.2392C39.2392 15.96 39.2392 15.904 39.2392 15.856C39.2392 15.792 39.2312 15.728 39.2152 15.664H40.1272V15.304H37.4152V14.824H39.4312C39.4152 14.744 39.4072 14.664 39.4072 14.584C39.4072 14.504 39.4072 14.424 39.4072 14.344H39.7192V14.104H37.7272V13.864H37.9432V13.504H38.5912V13.264H38.2552V13.144H38.1352V12.664H38.1592V12.184H38.2312V12.064H38.3032V11.944H37.8472V11.824H38.3512V11.704H38.2312C38.2472 11.64 38.2552 11.584 38.2552 11.536C38.2552 11.472 38.2552 11.408 38.2552 11.344H38.4472V11.224H38.0632C38.0632 11.144 38.0632 11.064 38.0632 10.984C38.0792 10.904 38.0872 10.824 38.0872 10.744H38.2552C38.2712 10.712 38.2792 10.672 38.2792 10.624C38.2792 10.576 38.2872 10.536 38.3032 10.504H38.4232L38.4952 10.144H37.6792L37.7512 9.784H38.4712C38.5032 9.704 38.5272 9.624 38.5432 9.544C38.5592 9.448 38.5832 9.368 38.6152 9.304H38.9032L38.9512 9.184H38.7832C38.7992 9.12 38.8152 9.064 38.8312 9.016C38.8632 8.952 38.8872 8.888 38.9032 8.824H38.8792C38.9112 8.76 38.9352 8.704 38.9512 8.656C38.9832 8.592 39.0152 8.528 39.0472 8.464H38.9752L39.1912 8.104H39.3832L39.4552 7.984H39.2392L39.5032 7.624H40.9432C40.9912 7.576 41.0232 7.536 41.0392 7.504H39.6952L39.9112 7.264H39.7912L40.1512 6.904C40.2472 6.824 40.3432 6.744 40.4392 6.664C40.5352 6.568 40.6392 6.488 40.7512 6.424H40.7752C40.9032 6.344 41.0312 6.264 41.1592 6.184C41.2872 6.088 41.4232 6.008 41.5672 5.944C41.6472 5.896 41.7272 5.856 41.8072 5.824C41.9032 5.776 41.9912 5.736 42.0712 5.704H42.1192C42.4552 5.56 42.8152 5.44 43.1992 5.344H43.1752C43.6552 5.216 44.1592 5.12 44.6872 5.056C45.2312 4.992 45.7912 4.96 46.3672 4.96C46.9752 4.96 47.5432 4.992 48.0712 5.056C48.6152 5.12 49.1352 5.216 49.6312 5.344C50.0312 5.44 50.4072 5.56 50.7592 5.704H50.7112C50.8072 5.736 50.9032 5.776 50.9992 5.824C51.0952 5.856 51.1912 5.896 51.2872 5.944C51.4472 6.008 51.5992 6.088 51.7432 6.184C51.8872 6.264 52.0312 6.344 52.1752 6.424H52.1512C52.2792 6.488 52.3912 6.568 52.4872 6.664C52.5992 6.744 52.7112 6.824 52.8232 6.904H52.7992C52.8792 6.968 52.9512 7.032 53.0152 7.096C53.0792 7.144 53.1432 7.2 53.2072 7.264H53.3272L53.5432 7.504H54.8872L55.0072 7.624H53.5432C53.6072 7.688 53.6552 7.752 53.6872 7.816C53.7352 7.864 53.7832 7.92 53.8312 7.984H54.0472L54.1192 8.104H53.9272C53.9592 8.168 53.9912 8.232 54.0232 8.296C54.0712 8.344 54.1032 8.4 54.1192 8.464H54.1912C54.2232 8.528 54.2552 8.592 54.2872 8.656C54.3192 8.704 54.3432 8.76 54.3592 8.824H54.4072C54.4392 8.888 54.4632 8.952 54.4792 9.016C54.4952 9.064 54.5112 9.12 54.5272 9.184H54.7192C54.7192 9.2 54.7192 9.216 54.7192 9.232C54.7352 9.248 54.7432 9.272 54.7432 9.304H54.4552C54.4872 9.384 54.5032 9.464 54.5032 9.544C54.5192 9.624 54.5352 9.704 54.5512 9.784H54.5992C54.5992 9.848 54.5992 9.912 54.5992 9.976C54.6152 10.024 54.6232 10.08 54.6232 10.144H55.0072C55.0232 10.176 55.0312 10.232 55.0312 10.312C55.0312 10.376 55.0152 10.44 54.9832 10.504H54.5752C54.5432 10.616 54.4792 10.696 54.3832 10.744H54.5512C54.4712 10.808 54.3672 10.84 54.2392 10.84H48.9352C48.7272 10.84 48.5672 10.808 48.4552 10.744H48.2872C48.1912 10.68 48.1272 10.624 48.0952 10.576L48.0232 10.504H48.4552C48.4232 10.456 48.3832 10.4 48.3352 10.336C48.2872 10.272 48.2232 10.208 48.1432 10.144H47.7592C47.5992 9.984 47.4152 9.864 47.2072 9.784H47.1592C46.9512 9.688 46.6792 9.64 46.3432 9.64C46.0072 9.64 45.7192 9.688 45.4792 9.784H44.7592C44.5512 9.848 44.3752 9.968 44.2312 10.144H45.0472C44.9672 10.224 44.8872 10.344 44.8072 10.504H44.6632C44.6472 10.536 44.6312 10.576 44.6152 10.624C44.5992 10.656 44.5832 10.696 44.5672 10.744H44.3992C44.3832 10.808 44.3672 10.888 44.3512 10.984C44.3352 11.064 44.3192 11.144 44.3032 11.224H44.7112C44.6952 11.256 44.6872 11.296 44.6872 11.344H44.4952V11.704H44.5912V11.824H44.0872V11.944H44.5432V12.064H44.4712V12.184H44.3992V12.664H44.3752V13.144H44.4952V13.264H44.8312V13.504H44.1832V13.864H43.9672V14.104H45.9592V14.344H45.6472C45.6472 14.424 45.6472 14.504 45.6472 14.584C45.6632 14.664 45.6712 14.744 45.6712 14.824H43.6552V15.304H46.3672V15.664H45.4792C45.4792 15.728 45.4792 15.792 45.4792 15.856C45.4952 15.904 45.5032 15.96 45.5032 16.024H44.5432C44.5592 16.088 44.5752 16.152 44.5912 16.216C44.6072 16.264 44.6232 16.32 44.6392 16.384H44.9032C44.9192 16.432 44.9352 16.48 44.9512 16.528C44.9672 16.56 44.9832 16.592 44.9992 16.624H42.7912C42.8072 16.704 42.8552 16.784 42.9352 16.864H44.2792C44.3752 17.008 44.4952 17.128 44.6392 17.224H44.8552C45.1432 17.448 45.5512 17.56 46.0792 17.56C46.3512 17.56 46.6072 17.536 46.8472 17.488C47.0872 17.424 47.2872 17.336 47.4472 17.224H45.7432C45.8712 17.144 45.9992 17.024 46.1272 16.864H46.1032C46.1672 16.768 46.2072 16.688 46.2232 16.624H48.4552L48.5272 16.384H48.7432C48.7592 16.32 48.7672 16.264 48.7672 16.216C48.7832 16.152 48.7912 16.088 48.7912 16.024H48.7192L48.7432 15.856V15.832H47.6152C47.4552 15.832 47.3032 15.776 47.1592 15.664C47.0472 15.552 46.9832 15.432 46.9672 15.304H48.3352C48.3192 15.272 48.3112 15.232 48.3112 15.184V14.824H49.2472V14.344H46.1032V14.104H47.3752V13.864H46.4872V13.504H46.7272V13.264H46.8952V13.144H46.7032V12.664H46.7752V12.52C46.7752 12.376 46.8072 12.264 46.8712 12.184H46.7752C46.7912 12.152 46.8232 12.112 46.8712 12.064H47.0152C47.0792 12 47.1272 11.96 47.1592 11.944H46.7272C46.8072 11.896 46.9032 11.872 47.0152 11.872H53.6152C53.7432 11.872 53.8392 11.896 53.9032 11.944H54.3592C54.4072 11.96 54.4632 12 54.5272 12.064H54.3832C54.4312 12.112 54.4632 12.152 54.4792 12.184H54.5752C54.6392 12.264 54.6712 12.376 54.6712 12.52V12.664H54.5992V13.144H54.7912V13.264H54.6232V13.504H54.3832V13.864H55.2712V14.104H53.9992V14.344Z" fill="black"/>
</g>
<defs>
<clipPath id="clip0_10_18">
<rect width="56" height="28" fill="white"/>
</clipPath>
</defs>
</svg>
